<svg width="16" height="16" viewBox="0 0 20 20" fill="none" xmlns="http://www.w3.org/2000/svg">
        <path d="M4.6 2.20033L3.3 3.93366C3.04251 4.27697 2.91377 4.44863 2.91676 4.59232C2.91936 4.71736 2.97799 4.83462 3.07646 4.91172C3.18962 5.00032 3.40419 5.00032 3.83333 5.00032H16.1667C16.5958 5.00032 16.8104 5.00032 16.9235 4.91172C17.022 4.83462 17.0806 4.71736 17.0832 4.59232C17.0862 4.44863 16.9575 4.27697 16.7 3.93366L15.4 2.20033M4.6 2.20033C4.74667 2.00477 4.82 1.90699 4.91294 1.83647C4.99525 1.77401 5.08846 1.72741 5.18782 1.69903C5.3 1.66699 5.42222 1.66699 5.66667 1.66699H14.3333C14.5778 1.66699 14.7 1.66699 14.8122 1.69903C14.9115 1.72741 15.0047 1.77401 15.0871 1.83647C15.18 1.90699 15.2533 2.00477 15.4 2.20033M4.6 2.20033L3.03333 4.28921C2.83545 4.55306 2.73651 4.68498 2.66625 4.83026C2.6039 4.95917 2.55843 5.09559 2.53096 5.23612C2.5 5.3945 2.5 5.55941 2.5 5.88921L2.5 15.667C2.5 16.6004 2.5 17.0671 2.68166 17.4236C2.84144 17.7372 3.09641 17.9922 3.41002 18.152C3.76654 18.3337 4.23325 18.3337 5.16667 18.3337L14.8333 18.3337C15.7668 18.3337 16.2335 18.3337 16.59 18.152C16.9036 17.9922 17.1586 17.7372 17.3183 17.4236C17.5 17.0671 17.5 16.6004 17.5 15.667V5.88921C17.5 5.55941 17.5 5.3945 17.469 5.23613C17.4416 5.09559 17.3961 4.95918 17.3338 4.83026C17.2635 4.68498 17.1646 4.55306 16.9667 4.28921L15.4 2.20033M13.3333 8.33366C13.3333 9.21771 12.9821 10.0656 12.357 10.6907C11.7319 11.3158 10.8841 11.667 10 11.667C9.11594 11.667 8.2681 11.3158 7.64298 10.6907C7.01786 10.0656 6.66667 9.21771 6.66667 8.33366" stroke="currentColor" stroke-width="1.66667" stroke-linecap="round" stroke-linejoin="round" fill="none"/>
       </svg>